<svg width="28" height="28" fill="none" xmlns="http://www.w3.org/2000/svg"><mask id="mask0_146_210" style="mask-type:alpha" maskUnits="userSpaceOnUse" x="1" y="1" width="26" height="26"><path d="M25.667 19.833H2.333m0-13.125h10.5M10.5 2.333H4.667c-1.1 0-1.65 0-1.992.342-.342.342-.342.891-.342 1.992v18.666c0 1.1 0 1.65.342 1.992.342.342.892.342 1.992.342H7l2.333-2.334 2.334 2.334h11.666c1.1 0 1.65 0 1.992-.342.342-.342.342-.892.342-1.992v-4.39c0-2.911 0-4.367-.864-5.356-.863-.99-2.306-1.186-5.19-1.58l-.725-.098c-2.885-.393-4.329-.59-5.192-1.58-.863-.988-.863-2.444-.863-5.356v-.306c0-1.1 0-1.65-.341-1.992-.342-.342-.892-.342-1.992-.342z" stroke="#fff" stroke-linecap="round" stroke-linejoin="round"/><path d="M8.75 15.167a1.75 1.75 0 100-3.5 1.75 1.75 0 000 3.5z" fill="#fff" stroke="#fff" stroke-linecap="round" stroke-linejoin="round"/></mask><g mask="url(#mask0_146_210)"><path d="M0 0h28v28H0V0z" fill="#F8F1E9"/></g></svg>