<svg width="126" height="87" fill="none" xmlns="http://www.w3.org/2000/svg"><path d="M14.369 73.35c.654 3.655 2.413 6.728 5.277 9.22 2.864 2.492 6.096 3.738 9.697 3.738h67.26c3.601 0 6.833-1.246 9.697-3.738 2.864-2.492 4.624-5.565 5.278-9.22l14.238-65.79c.327-1.495.082-2.907-.737-4.236-.818-1.33-1.963-2.077-3.436-2.243-1.473-.332-2.864-.083-4.173.747-1.31.831-2.046 1.994-2.21 3.49l-4.173 20.932c-.163-.332-.532-.706-1.104-1.121-.573-.415-1.023-.79-1.351-1.121-3.927-4.652-8.673-6.978-14.237-6.978s-10.31 2.326-14.238 6.978c-2.291 2.492-4.5 3.738-6.628 3.738-2.127 0-4.419-1.246-6.873-3.738-3.928-4.652-8.674-6.978-14.238-6.978-5.728 0-10.392 2.326-13.992 6.978-2.455 2.492-4.746 3.738-6.874 3.738-2.127 0-4.418-1.246-6.873-3.738-3.273-3.655-7.12-5.981-11.538-6.978L10.687 5.317c-.328-1.329-1.146-2.409-2.455-3.24-1.31-.83-2.619-1.162-3.928-.996-1.31.166-2.414.955-3.314 2.367C.09 4.86-.196 6.231.13 7.56l14.24 65.79zm2.945-41.866c3.928 4.651 8.674 6.977 14.238 6.977s10.31-2.326 14.238-6.977c2.291-2.492 4.5-3.738 6.628-3.738 2.127 0 4.418 1.246 6.873 3.738 4.583 4.651 9.328 6.977 14.238 6.977 5.728 0 10.392-2.326 13.992-6.977 2.455-2.492 4.746-3.738 6.874-3.738 2.127 0 4.418 1.246 6.873 3.738 2.782 2.824 5.401 4.734 7.855 5.731l-7.364 34.141c-.491 2.824-2.21 4.237-5.155 4.237H29.343c-2.946 0-4.664-1.413-5.155-4.237l-8.346-41.368 1.472 1.496z" fill="#0D0D0D"/><path d="M45.213 52.973c.08-2.14.78-3.79 2.1-4.95 1.32-1.16 3.11-1.74 5.37-1.74 1.5 0 2.78.26 3.84.78 1.08.52 1.89 1.23 2.43 2.13.56.9.84 1.91.84 3.03 0 1.32-.33 2.4-.99 3.24-.66.82-1.43 1.38-2.31 1.68v.12c1.14.38 2.04 1.01 2.7 1.89.66.88.99 2.01.99 3.39 0 1.24-.29 2.34-.87 3.3-.56.94-1.39 1.68-2.49 2.22-1.08.54-2.37.81-3.87.81-2.4 0-4.32-.59-5.76-1.77-1.42-1.18-2.17-2.96-2.25-5.34h4.98c.02.88.27 1.58.75 2.1.48.5 1.18.75 2.1.75.78 0 1.38-.22 1.8-.66.44-.46.66-1.06.66-1.8 0-.96-.31-1.65-.93-2.07-.6-.44-1.57-.66-2.91-.66h-.96v-4.17h.96c1.02 0 1.84-.17 2.46-.51.64-.36.96-.99.96-1.89 0-.72-.2-1.28-.6-1.68-.4-.4-.95-.6-1.65-.6-.76 0-1.33.23-1.71.69-.36.46-.57 1.03-.63 1.71h-5.01zm18.884 4.47c0-3.44.66-6.15 1.98-8.13 1.34-1.98 3.49-2.97 6.45-2.97s5.1.99 6.42 2.97c1.34 1.98 2.01 4.69 2.01 8.13 0 3.48-.67 6.21-2.01 8.19-1.32 1.98-3.46 2.97-6.42 2.97s-5.11-.99-6.45-2.97c-1.32-1.98-1.98-4.71-1.98-8.19zm11.82 0c0-2.02-.22-3.57-.66-4.65-.44-1.1-1.35-1.65-2.73-1.65s-2.29.55-2.73 1.65c-.44 1.08-.66 2.63-.66 4.65 0 1.36.08 2.49.24 3.39.16.88.48 1.6.96 2.16.5.54 1.23.81 2.19.81s1.68-.27 2.16-.81c.5-.56.83-1.28.99-2.16.16-.9.24-2.03.24-3.39z" fill="#0D0D0D"/></svg>