<svg width="175" height="217" fill="none" xmlns="http://www.w3.org/2000/svg"><path d="M158.375 6.875H16.625C11.033 6.875 6.5 11.422 6.5 17.03v182.788c0 5.608 4.533 10.154 10.125 10.154h141.75c5.592 0 10.125-4.546 10.125-10.154V17.03c0-5.608-4.533-10.155-10.125-10.155z" stroke="#0D0D0D" stroke-width="13"/><path d="M6.5 47.495a10.17 10.17 0 002.966 7.18 10.11 10.11 0 007.159 2.975h141.75c2.685 0 5.261-1.07 7.159-2.975a10.17 10.17 0 002.966-7.18V17.03a10.17 10.17 0 00-2.966-7.18 10.108 10.108 0 00-7.159-2.975H16.625a10.11 10.11 0 00-7.16 2.975A10.17 10.17 0 006.5 17.03v30.465z" fill="#81D3D8" stroke="#0D0D0D" stroke-width="13"/><path d="M40.5 32.263c0 2.036-1.641 3.655-3.625 3.655s-3.625-1.619-3.625-3.655c0-2.037 1.641-3.655 3.625-3.655s3.625 1.618 3.625 3.655zm30.375 0c0 2.036-1.641 3.655-3.625 3.655s-3.625-1.619-3.625-3.655c0-2.037 1.641-3.655 3.625-3.655s3.625 1.618 3.625 3.655z" stroke="#0D0D0D" stroke-width="13"/><path d="M87.5 169.353c19.572 0 35.438-15.913 35.438-35.542S107.072 98.269 87.5 98.269c-19.572 0-35.438 15.913-35.438 35.542s15.866 35.542 35.438 35.542z" fill="#81D3D8" stroke="#0D0D0D" stroke-width="13"/></svg>