<svg width="103" height="101" fill="none" xmlns="http://www.w3.org/2000/svg"><g clip-path="url(#clip0_30_218)"><path d="M77.652 27.176L94.35 88.633c.402 2.002 1.877 3.003 4.425 3.003h1.207c1.073-.133 1.912-.734 2.515-1.802.604-1.067.771-2.135.503-3.203L85.9 24.574c-1.475-5.338-4.526-9.709-9.153-13.112-4.627-3.403-9.757-5.105-15.39-5.105H38.625c-2.816 0-4.225 1.401-4.225 4.204s1.409 4.204 4.225 4.204h22.732c3.621 0 6.974 1.168 10.059 3.503 3.085 2.336 5.163 5.305 6.236 8.908zM4.225 91.636H68.6c2.95 0 4.425-1.401 4.425-4.204 0-2.802-1.475-4.204-4.425-4.204H9.053c.804-6.94 3.218-13.179 7.242-18.717 4.023-5.538 9.187-9.709 15.49-12.512 2.548-.934 3.286-2.802 2.213-5.605-1.341-2.535-3.219-3.203-5.633-2.002-8.717 3.87-15.624 9.676-20.72 17.416C2.548 69.55 0 78.09 0 87.433c0 2.803 1.408 4.204 4.225 4.204zM60.15 40.389c-2.95 0-4.425 1.468-4.425 4.404 0 1.2.402 2.202 1.207 3.002.804.801 1.877 1.202 3.218 1.202h8.45c1.34 0 2.414-.4 3.218-1.202.805-.8 1.207-1.801 1.207-3.002 0-2.936-1.475-4.404-4.425-4.404h-8.45zM5.633 3.354c-2.146 1.869-2.146 3.87 0 6.006l85.699 89.683c1.073.8 2.079 1.201 3.018 1.201 1.207 0 2.213-.4 3.017-1.201 2.146-2.135 2.146-4.137 0-6.006L11.668 3.354c-2.146-2.135-4.158-2.135-6.035 0z" fill="#0D0D0D"/></g><defs><clipPath id="clip0_30_218"><path fill="#fff" transform="translate(0 .952)" d="M0 0h103v99.292H0z"/></clipPath></defs></svg>