<svg width="104" height="63" fill="none" xmlns="http://www.w3.org/2000/svg"><path d="M101.988 23.032l-5.883-5.699-.072-4.296a.99.99 0 00-.3-.7L85.643 2.58a.994.994 0 00-1.41.023l-8.785 9.08a.992.992 0 00.024 1.409l10.092 9.757a.993.993 0 00.71.276l4.307-.072 5.884 5.698a3.974 3.974 0 005.524-5.71v-.01zM79.115 10.748l2.312 2.244 1.386-1.432-2.321-2.235 1.552-1.604 4.33 4.196 1.385-1.432-4.339-4.186 1.552-1.604 6.65 6.43-7.408 7.657-6.65-6.43 1.552-1.604zm21.534 16.514a1.986 1.986 0 01-2.8.047l-6.185-5.971a1.787 1.787 0 00-.71-.276l-4.308.072-1.01-.976 7.41-7.657 1.009.976.071 4.306c.006.26.113.508.3.69l6.176 5.991a1.986 1.986 0 01.047 2.798zM12.06 4.364V17H8.982v-5.202H4.194V17H1.116V4.364h3.078v4.95h4.788v-4.95h3.078zm10.088 10.404h-4.716L16.676 17h-3.222l4.572-12.636h3.564L26.162 17h-3.258l-.756-2.232zm-.792-2.376L19.79 7.766l-1.548 4.626h3.114zM38.858 17H35.78l-5.15-7.794V17h-3.078V4.364h3.078l5.148 7.83v-7.83h3.078V17zm6.965-12.636c1.332 0 2.496.264 3.492.792a5.583 5.583 0 012.304 2.232c.552.948.828 2.046.828 3.294 0 1.236-.276 2.334-.828 3.294-.54.96-1.314 1.704-2.322 2.232-.996.528-2.154.792-3.474.792h-4.734V4.364h4.734zm-.198 9.972c1.164 0 2.07-.318 2.718-.954.648-.636.972-1.536.972-2.7 0-1.164-.324-2.07-.972-2.718-.648-.648-1.554-.972-2.718-.972h-1.458v7.344h1.458zM10.746 29.432a4.12 4.12 0 01-.504 2.016c-.336.6-.852 1.086-1.548 1.458-.696.372-1.56.558-2.592.558H4.194V38H1.116V25.364h4.986c1.008 0 1.86.174 2.556.522.696.348 1.218.828 1.566 1.44.348.612.522 1.314.522 2.106zm-4.878 1.584c.588 0 1.026-.138 1.314-.414.288-.276.432-.666.432-1.17 0-.504-.144-.894-.432-1.17-.288-.276-.726-.414-1.314-.414H4.194v3.168h1.674zm14.346 4.752h-4.716L14.742 38H11.52l4.572-12.636h3.564L24.228 38H20.97l-.756-2.232zm-.792-2.376l-1.566-4.626-1.548 4.626h3.114zm9.276-8.028V38H25.62V25.364h3.078zM42.233 38h-3.078l-5.148-7.794V38h-3.078V25.364h3.078l5.148 7.83v-7.83h3.078V38zm11.32-12.636v2.466h-3.347V38h-3.078V27.83H43.78v-2.466h9.774zm4.623 2.466v2.556h4.122v2.376h-4.122v2.772h4.662V38h-7.74V25.364h7.74v2.466h-4.662zm11.395-2.466c1.332 0 2.496.264 3.492.792a5.583 5.583 0 012.304 2.232c.552.948.828 2.046.828 3.294 0 1.236-.276 2.334-.828 3.294-.54.96-1.314 1.704-2.322 2.232-.996.528-2.154.792-3.474.792h-4.734V25.364h4.734zm-.198 9.972c1.164 0 2.07-.318 2.718-.954.648-.636.972-1.536.972-2.7 0-1.164-.324-2.07-.972-2.718-.648-.648-1.554-.972-2.718-.972h-1.458v7.344h1.458zM.594 52.664c0-1.248.27-2.358.81-3.33a5.73 5.73 0 012.25-2.286c.972-.552 2.07-.828 3.294-.828 1.5 0 2.784.396 3.852 1.188 1.068.792 1.782 1.872 2.142 3.24H9.558a2.716 2.716 0 00-1.08-1.206c-.456-.276-.978-.414-1.566-.414-.948 0-1.716.33-2.304.99-.588.66-.882 1.542-.882 2.646 0 1.104.294 1.986.882 2.646.588.66 1.356.99 2.304.99.588 0 1.11-.138 1.566-.414a2.716 2.716 0 001.08-1.206h3.384c-.36 1.368-1.074 2.448-2.142 3.24-1.068.78-2.352 1.17-3.852 1.17-1.224 0-2.322-.27-3.294-.81a5.885 5.885 0 01-2.25-2.286c-.54-.972-.81-2.082-.81-3.33zm17.31 3.96h4.033V59h-7.11V46.364h3.078v10.26zm11.477 2.502a6.645 6.645 0 01-3.276-.828 6.295 6.295 0 01-2.358-2.304c-.576-.996-.864-2.112-.864-3.348 0-1.236.288-2.346.864-3.33a6.295 6.295 0 012.358-2.304 6.645 6.645 0 013.276-.828c1.188 0 2.274.276 3.258.828a5.999 5.999 0 012.34 2.304c.576.984.864 2.094.864 3.33 0 1.236-.288 2.352-.864 3.348a6.162 6.162 0 01-2.34 2.304c-.984.552-2.07.828-3.258.828zm0-2.808c1.008 0 1.812-.336 2.412-1.008.612-.672.918-1.56.918-2.664 0-1.116-.306-2.004-.918-2.664-.6-.672-1.404-1.008-2.412-1.008-1.02 0-1.836.33-2.448.99-.6.66-.9 1.554-.9 2.682 0 1.116.3 2.01.9 2.682.612.66 1.428.99 2.448.99zm17.264-9.954v2.466h-3.348V59H40.22V48.83h-3.348v-2.466h9.774zm12.49 0V59h-3.079v-5.202h-4.788V59H48.19V46.364h3.078v4.95h4.788v-4.95h3.078zm5.3 0V59h-3.079V46.364h3.078zM77.968 59H74.89l-5.148-7.794V59h-3.078V46.364h3.078l5.148 7.83v-7.83h3.078V59zm10.619-8.64a2.238 2.238 0 00-.99-.954c-.42-.228-.918-.342-1.494-.342-.996 0-1.794.33-2.394.99-.6.648-.9 1.518-.9 2.61 0 1.164.312 2.076.936 2.736.636.648 1.506.972 2.61.972.756 0 1.392-.192 1.908-.576.528-.384.912-.936 1.152-1.656H85.51v-2.268h6.696v2.862a5.969 5.969 0 01-1.17 2.142c-.54.66-1.23 1.194-2.07 1.602-.84.408-1.788.612-2.844.612-1.248 0-2.364-.27-3.348-.81a5.977 5.977 0 01-2.286-2.286c-.54-.972-.81-2.082-.81-3.33 0-1.248.27-2.358.81-3.33a5.817 5.817 0 012.286-2.286c.972-.552 2.082-.828 3.33-.828 1.512 0 2.784.366 3.816 1.098 1.044.732 1.734 1.746 2.07 3.042h-3.402z" fill="#F3134F"/></svg>