<svg width="57" height="75" fill="none" xmlns="http://www.w3.org/2000/svg"><rect width="57" height="57" rx="7" fill="#F8F1E9"/><path d="M7.764 64.333v.814h-2.09V72H4.673v-6.853H2.572v-.814h5.192zm6.732 4.422c0 .19-.011.392-.033.605H9.645c.037.594.238 1.06.605 1.397.374.33.825.495 1.353.495.433 0 .792-.099 1.078-.297a1.62 1.62 0 00.616-.814h1.078a2.618 2.618 0 01-.968 1.419c-.484.36-1.085.539-1.804.539a3.077 3.077 0 01-1.54-.385c-.447-.257-.8-.62-1.056-1.089-.257-.477-.385-1.027-.385-1.65s.125-1.17.374-1.639a2.6 2.6 0 011.045-1.078c.455-.257.975-.385 1.562-.385.572 0 1.078.125 1.518.374.44.25.777.594 1.012 1.034.242.433.363.924.363 1.474zm-1.034-.209c0-.381-.084-.708-.253-.979a1.591 1.591 0 00-.693-.627 2.066 2.066 0 00-.957-.22c-.506 0-.939.161-1.298.484-.352.323-.554.77-.605 1.342h3.806zm3.356-4.686V72h-1v-8.14h1zm7.206 4.895c0 .19-.01.392-.033.605h-4.818c.037.594.239 1.06.605 1.397.374.33.825.495 1.353.495.433 0 .792-.099 1.078-.297a1.62 1.62 0 00.616-.814h1.078a2.618 2.618 0 01-.968 1.419c-.484.36-1.085.539-1.804.539a3.077 3.077 0 01-1.54-.385c-.447-.257-.8-.62-1.056-1.089-.256-.477-.385-1.027-.385-1.65s.125-1.17.374-1.639a2.6 2.6 0 011.045-1.078c.455-.257.976-.385 1.562-.385.572 0 1.078.125 1.518.374.44.25.778.594 1.012 1.034.242.433.363.924.363 1.474zm-1.034-.209c0-.381-.084-.708-.253-.979a1.591 1.591 0 00-.693-.627 2.066 2.066 0 00-.957-.22c-.506 0-.938.161-1.298.484-.352.323-.553.77-.605 1.342h3.806zm4.841-2.673c.521 0 .976.114 1.364.341.396.227.69.513.88.858v-1.1h1.012v6.16c0 .55-.117 1.038-.352 1.463a2.49 2.49 0 01-1.011 1.012c-.433.242-.94.363-1.518.363-.793 0-1.453-.187-1.98-.561a2.193 2.193 0 01-.935-1.529h.99c.11.367.337.66.681.88.345.227.76.341 1.244.341.55 0 .997-.172 1.341-.517.352-.345.529-.829.529-1.452v-1.265a2.41 2.41 0 01-.88.88c-.39.235-.844.352-1.365.352a2.79 2.79 0 01-1.462-.396 2.778 2.778 0 01-1.023-1.111c-.25-.477-.375-1.02-.375-1.628 0-.616.125-1.155.375-1.617a2.71 2.71 0 011.023-1.089 2.85 2.85 0 011.462-.385zm2.245 3.102c0-.455-.092-.85-.276-1.188a1.893 1.893 0 00-.748-.77 1.963 1.963 0 00-1.023-.275c-.373 0-.715.088-1.023.264a1.916 1.916 0 00-.736.77c-.184.337-.276.733-.276 1.188 0 .462.092.865.276 1.21.183.337.428.598.736.781.308.176.65.264 1.023.264.375 0 .715-.088 1.023-.264.316-.183.565-.444.748-.781.184-.345.276-.744.276-1.199zm3.704-2.024c.176-.345.425-.612.748-.803.33-.19.73-.286 1.2-.286v1.034h-.265c-1.122 0-1.683.609-1.683 1.826V72h-1v-6.028h1v.979zm2.729 2.013c0-.616.124-1.155.374-1.617a2.71 2.71 0 011.023-1.089 2.85 2.85 0 011.463-.385c.528 0 .986.114 1.375.341.388.227.678.513.869.858v-1.1h1.012V72h-1.012v-1.122a2.387 2.387 0 01-.891.88c-.389.227-.844.341-1.364.341a2.73 2.73 0 01-1.452-.396 2.778 2.778 0 01-1.023-1.111c-.25-.477-.374-1.02-.374-1.628zm5.104.011c0-.455-.092-.85-.275-1.188a1.893 1.893 0 00-.748-.77 1.963 1.963 0 00-1.023-.275c-.374 0-.715.088-1.023.264a1.916 1.916 0 00-.737.77c-.184.337-.275.733-.275 1.188 0 .462.091.865.275 1.21.183.337.429.598.737.781.308.176.649.264 1.023.264.374 0 .715-.088 1.023-.264.315-.183.564-.444.748-.781a2.52 2.52 0 00.275-1.199zm9.952-3.113c.47 0 .888.099 1.254.297.367.19.657.48.87.869.212.389.318.862.318 1.419V72h-.99v-3.41c0-.601-.15-1.06-.45-1.375-.294-.323-.694-.484-1.2-.484-.52 0-.935.169-1.243.506-.308.33-.462.81-.462 1.441V72h-.99v-3.41c0-.601-.15-1.06-.45-1.375-.294-.323-.694-.484-1.2-.484-.52 0-.935.169-1.243.506-.308.33-.462.81-.462 1.441V72h-1v-6.028h1v.869c.198-.315.462-.557.792-.726a2.449 2.449 0 011.111-.253c.506 0 .954.114 1.342.341.389.227.679.561.87 1.001.168-.425.447-.755.835-.99a2.463 2.463 0 011.298-.352z" fill="#F8F1E9"/><path fill-rule="evenodd" clip-rule="evenodd" d="M47 28.5C47 38.717 38.717 47 28.5 47S10 38.717 10 28.5 18.283 10 28.5 10 47 18.283 47 28.5zm-17.837-4.842c-1.8.747-5.396 2.297-10.789 4.646-.875.349-1.335.69-1.376 1.022-.071.565.635.787 1.594 1.087.13.042.266.084.405.13.945.306 2.215.666 2.875.68.6.012 1.27-.235 2.008-.74 5.038-3.403 7.639-5.122 7.802-5.159.116-.026.276-.06.384.037.108.096.097.278.086.327-.07.297-2.837 2.87-4.27 4.203-.447.414-.763.709-.828.777-.145.15-.293.293-.435.43-.879.845-1.535 1.48.037 2.516.756.498 1.36.91 1.963 1.32.658.448 1.315.895 2.166 1.453.216.142.422.288.624.432.766.547 1.456 1.037 2.306.96.494-.046 1.006-.51 1.265-1.896.612-3.278 1.817-10.375 2.096-13.302a3.257 3.257 0 00-.03-.727.78.78 0 00-.266-.501c-.22-.18-.562-.22-.717-.216-.695.012-1.762.384-6.9 2.52z" fill="#F22E9A"/></svg>