<svg width="57" height="57" fill="none" xmlns="http://www.w3.org/2000/svg"><rect width="57" height="57" rx="7" fill="#F8F1E9"/><path fill-rule="evenodd" clip-rule="evenodd" d="M47 28.5C47 38.717 38.717 47 28.5 47S10 38.717 10 28.5 18.283 10 28.5 10 47 18.283 47 28.5zm-17.837-4.842c-1.8.747-5.396 2.297-10.789 4.646-.875.349-1.335.69-1.376 1.022-.071.565.635.787 1.594 1.087.13.042.266.084.405.13.945.306 2.215.666 2.875.68.6.012 1.27-.235 2.008-.74 5.038-3.403 7.639-5.122 7.802-5.159.116-.026.276-.06.384.037.108.096.097.278.086.327-.07.297-2.837 2.87-4.27 4.203-.447.414-.763.709-.828.777-.145.15-.293.293-.435.43-.879.845-1.535 1.48.037 2.516.756.498 1.36.91 1.963 1.32.658.448 1.315.895 2.166 1.453.216.142.422.288.624.432.766.547 1.456 1.037 2.306.96.494-.046 1.006-.51 1.265-1.896.612-3.278 1.817-10.375 2.096-13.302a3.257 3.257 0 00-.03-.727.78.78 0 00-.266-.501c-.22-.18-.562-.22-.717-.216-.695.012-1.762.384-6.9 2.52z" fill="#F22E9A"/></svg>