<svg width="57" height="57" fill="none" xmlns="http://www.w3.org/2000/svg"><rect width="57" height="57" rx="7" fill="#F8F1E9"/><g clip-path="url(#clip0_20_165)"><path d="M41.873 13.603c-.918-.845-4.633-3.54-12.914-3.577 0 0-9.763-.585-14.518 3.78-2.645 2.645-3.577 6.525-3.679 11.33-.1 4.807-.224 13.81 8.456 16.253h.007l-.008 3.73s-.057 1.51.94 1.813c1.2.376 1.908-.773 3.057-2.009.629-.679 1.496-1.676 2.153-2.435 5.94.498 10.5-.643 11.02-.81 1.2-.39 7.986-1.257 9.085-10.261 1.141-9.294-.55-15.162-3.6-17.814zm1.004 17.135c-.932 7.515-6.431 7.992-7.443 8.317-.434.138-4.444 1.135-9.481.81 0 0-3.758 4.53-4.929 5.709-.383.383-.802.346-.795-.412 0-.499.03-6.193.03-6.193-.008 0-.008 0 0 0-7.357-2.038-6.924-9.706-6.844-13.716.08-4.011.838-7.3 3.078-9.51 4.025-3.65 12.314-3.108 12.314-3.108 7.003.029 10.356 2.139 11.136 2.847 2.58 2.212 3.895 7.501 2.934 15.256zm-10.045-5.84c.03.622-.903.665-.932.044-.08-1.59-.824-2.363-2.356-2.45-.621-.036-.563-.968.05-.932 2.017.108 3.137 1.264 3.238 3.338zm1.467.817c.073-3.064-1.842-5.463-5.477-5.73-.615-.044-.55-.976.065-.933 4.191.304 6.424 3.187 6.345 6.685-.008.621-.947.592-.933-.022zm3.397.968c.007.622-.932.63-.932.008-.044-5.89-3.968-9.099-8.73-9.135-.614-.007-.614-.932 0-.932 5.326.036 9.611 3.715 9.662 10.06zm-.817 7.09v.014c-.78 1.373-2.24 2.89-3.743 2.407l-.015-.022c-1.524-.426-5.116-2.276-7.385-4.083a18.89 18.89 0 01-3.064-3.064 23.453 23.453 0 01-2.226-3.368c-1.54-2.782-1.879-4.025-1.879-4.025-.484-1.503 1.026-2.963 2.407-3.743h.014c.665-.347 1.3-.232 1.727.282 0 0 .896 1.069 1.28 1.597.36.491.845 1.279 1.098 1.72.44.787.166 1.59-.268 1.922l-.867.694c-.44.354-.383 1.011-.383 1.011s1.286 4.864 6.092 6.092c0 0 .658.058 1.012-.383l.694-.867c.332-.434 1.134-.708 1.922-.267 1.062.6 2.413 1.532 3.31 2.377.506.412.621 1.04.274 1.706z" fill="#F22E9A"/></g><defs><clipPath id="clip0_20_165"><path fill="#fff" transform="translate(10 10)" d="M0 0h37v37H0z"/></clipPath></defs></svg>