<svg width="57" height="57" fill="none" xmlns="http://www.w3.org/2000/svg"><rect width="57" height="57" rx="7" fill="#F8F1E9"/><g clip-path="url(#clip0_20_145)"><path fill-rule="evenodd" clip-rule="evenodd" d="M39.96 32.222c-.465-.233-2.748-1.355-3.172-1.511-.425-.155-.735-.231-1.046.234-.31.463-1.198 1.51-1.469 1.82-.271.31-.542.348-1.006.116-.464-.234-1.96-.723-3.734-2.304-1.38-1.232-2.313-2.752-2.583-3.218-.27-.464-.03-.715.203-.946.21-.208.464-.543.697-.813.233-.272.31-.466.464-.777.156-.309.078-.58-.039-.812-.116-.233-1.044-2.519-1.431-3.448-.377-.905-.76-.782-1.044-.797a20.087 20.087 0 00-.89-.016c-.31 0-.813.116-1.238.581-.427.464-1.625 1.588-1.625 3.874 0 2.284 1.662 4.492 1.895 4.803.233.31 3.274 5 7.931 7.01 1.11.479 1.974.765 2.647.977 1.113.355 2.125.305 2.925.185.89-.133 2.747-1.124 3.135-2.208.386-1.084.386-2.014.27-2.208-.116-.194-.425-.31-.89-.542zm-8.47 11.567h-.007c-2.767 0-5.482-.743-7.863-2.153l-.562-.334-5.847 1.534 1.56-5.7-.366-.584a15.407 15.407 0 01-2.361-8.22c.003-8.515 6.931-15.443 15.451-15.443 4.125 0 8.003 1.61 10.92 4.528a15.35 15.35 0 014.518 10.927c-.003 8.515-6.931 15.445-15.444 15.445zM44.632 15.2a18.46 18.46 0 00-13.146-5.45c-10.24 0-18.578 8.336-18.58 18.581-.005 3.26.85 6.465 2.479 9.29l-2.636 9.63 9.85-2.585a18.565 18.565 0 008.881 2.262h.008c10.24 0 18.578-8.336 18.581-18.583A18.47 18.47 0 0044.633 15.2" fill="#F22E9A"/></g><defs><clipPath id="clip0_20_145"><path fill="#fff" transform="translate(12.75 9.75)" d="M0 0h37.5v37.5H0z"/></clipPath></defs></svg>